# xmcd CD database file
#
# Track frame offsets:
#	150
#	17423
#	37740
#	59493
#	76739
#	95803
#	119044
#	139214
#	160166
#	181834
#	201403
#	222491
#	240701
#	262816
#
# Disc length: 3793 seconds
#
# Revision: 0
# Processed by: cddbd v1.5.1PL0 Copyright (c) Steve Scherf et al.
# Submitted via: CDex 1.51
#
DISCID=c10ecf0e
DTITLE=DJ Byakko - 20 Años
DYEAR=1900
DGENRE=Salsa
TTITLE0=Dama De Hierro
TTITLE1=Mi Corazón
TTITLE2=Licencia Para Engañar
TTITLE3=20 Años
TTITLE4=Que Quiere Esa Música
TTITLE5=Pequeño Gran Amor
TTITLE6=Sin Motivo
TTITLE7=Gracias Amor
TTITLE8=Tal Vez
TTITLE9=El Gran Conquistador
TTITLE10=La Chica De Mi Amigo
TTITLE11=Pero Me Acuerdo De Ti
TTITLE12=Qué Haré
TTITLE13=Regresa A Mí
EXTD=
EXTT0=
EXTT1=
EXTT2=
EXTT3=
EXTT4=
EXTT5=
EXTT6=
EXTT7=
EXTT8=
EXTT9=
EXTT10=
EXTT11=
EXTT12=
EXTT13=
PLAYORDER=
